<mxfile host="app.diagrams.net" modified="2024-05-17T08:19:18.985Z" agent="Mozilla/5.0 (Windows NT 10.0; Win64; x64) AppleWebKit/537.36 (KHTML, like Gecko) Chrome/122.0.0.0 Safari/537.36 Edg/122.0.0.0" etag="K75E9vNRd4QETJZLBvS3" version="24.4.3" type="github">
  <diagram name="第 1 页" id="BFAQjRt_WDJGOMpopK9n">
    <mxGraphModel dx="1002" dy="577" grid="1" gridSize="10" guides="1" tooltips="1" connect="1" arrows="1" fold="1" page="1" pageScale="1" pageWidth="827" pageHeight="1169" math="0" shadow="0">
      <root>
        <mxCell id="0" />
        <mxCell id="1" parent="0" />
        <mxCell id="o_4FNLrDD9hXevd7KG6G-1" value="" style="image;aspect=fixed;perimeter=ellipsePerimeter;html=1;align=center;shadow=0;dashed=0;spacingTop=3;image=img/lib/active_directory/vista_terminal.svg;" parent="1" vertex="1">
          <mxGeometry x="174.2" y="150" width="39" height="60" as="geometry" />
        </mxCell>
        <mxCell id="o_4FNLrDD9hXevd7KG6G-2" value="" style="image;aspect=fixed;perimeter=ellipsePerimeter;html=1;align=center;shadow=0;dashed=0;spacingTop=3;image=img/lib/active_directory/laptop_client.svg;" parent="1" vertex="1">
          <mxGeometry x="162.5" y="260" width="54" height="60" as="geometry" />
        </mxCell>
        <mxCell id="o_4FNLrDD9hXevd7KG6G-3" value="" style="image;aspect=fixed;perimeter=ellipsePerimeter;html=1;align=center;shadow=0;dashed=0;spacingTop=3;image=img/lib/active_directory/vista_client.svg;" parent="1" vertex="1">
          <mxGeometry x="160" y="350" width="53.2" height="70" as="geometry" />
        </mxCell>
        <mxCell id="o_4FNLrDD9hXevd7KG6G-4" value="" style="image;aspect=fixed;perimeter=ellipsePerimeter;html=1;align=center;shadow=0;dashed=0;spacingTop=3;image=img/lib/active_directory/internet_cloud.svg;" parent="1" vertex="1">
          <mxGeometry x="300" y="270" width="63.49" height="40" as="geometry" />
        </mxCell>
        <mxCell id="o_4FNLrDD9hXevd7KG6G-7" value="" style="image;aspect=fixed;perimeter=ellipsePerimeter;html=1;align=center;shadow=0;dashed=0;spacingTop=3;image=img/lib/active_directory/generic_server.svg;" parent="1" vertex="1">
          <mxGeometry x="429.6" y="255" width="39.2" height="70" as="geometry" />
        </mxCell>
        <mxCell id="o_4FNLrDD9hXevd7KG6G-8" value="" style="image;aspect=fixed;perimeter=ellipsePerimeter;html=1;align=center;shadow=0;dashed=0;spacingTop=3;image=img/lib/active_directory/generic_server.svg;" parent="1" vertex="1">
          <mxGeometry x="640" y="270" width="28.000000000000004" height="50" as="geometry" />
        </mxCell>
        <mxCell id="o_4FNLrDD9hXevd7KG6G-9" value="" style="image;aspect=fixed;perimeter=ellipsePerimeter;html=1;align=center;shadow=0;dashed=0;spacingTop=3;image=img/lib/active_directory/generic_server.svg;" parent="1" vertex="1">
          <mxGeometry x="550" y="190" width="28.000000000000004" height="50" as="geometry" />
        </mxCell>
        <mxCell id="o_4FNLrDD9hXevd7KG6G-10" value="" style="image;aspect=fixed;perimeter=ellipsePerimeter;html=1;align=center;shadow=0;dashed=0;spacingTop=3;image=img/lib/active_directory/generic_server.svg;" parent="1" vertex="1">
          <mxGeometry x="550" y="330" width="28.000000000000004" height="50" as="geometry" />
        </mxCell>
        <mxCell id="o_4FNLrDD9hXevd7KG6G-11" value="用户1" style="text;html=1;align=center;verticalAlign=middle;whiteSpace=wrap;rounded=0;" parent="1" vertex="1">
          <mxGeometry x="160" y="210" width="60" height="30" as="geometry" />
        </mxCell>
        <mxCell id="o_4FNLrDD9hXevd7KG6G-12" value="用户2" style="text;html=1;align=center;verticalAlign=middle;whiteSpace=wrap;rounded=0;" parent="1" vertex="1">
          <mxGeometry x="160" y="320" width="60" height="30" as="geometry" />
        </mxCell>
        <mxCell id="o_4FNLrDD9hXevd7KG6G-13" value="用户3" style="text;html=1;align=center;verticalAlign=middle;whiteSpace=wrap;rounded=0;" parent="1" vertex="1">
          <mxGeometry x="156.6" y="420" width="60" height="30" as="geometry" />
        </mxCell>
        <mxCell id="o_4FNLrDD9hXevd7KG6G-14" value="互联网" style="text;html=1;align=center;verticalAlign=middle;whiteSpace=wrap;rounded=0;" parent="1" vertex="1">
          <mxGeometry x="300" y="320" width="60" height="30" as="geometry" />
        </mxCell>
        <mxCell id="o_4FNLrDD9hXevd7KG6G-15" value="Nginx代理服务器" style="text;html=1;align=center;verticalAlign=middle;whiteSpace=wrap;rounded=0;" parent="1" vertex="1">
          <mxGeometry x="419.2" y="335.1" width="60" height="30" as="geometry" />
        </mxCell>
        <mxCell id="o_4FNLrDD9hXevd7KG6G-16" value="Web服务器2" style="text;html=1;align=center;verticalAlign=middle;whiteSpace=wrap;rounded=0;" parent="1" vertex="1">
          <mxGeometry x="530" y="380" width="60" height="30" as="geometry" />
        </mxCell>
        <mxCell id="o_4FNLrDD9hXevd7KG6G-17" value="Web服务器1" style="text;html=1;align=center;verticalAlign=middle;whiteSpace=wrap;rounded=0;" parent="1" vertex="1">
          <mxGeometry x="530" y="250" width="60" height="30" as="geometry" />
        </mxCell>
        <mxCell id="o_4FNLrDD9hXevd7KG6G-18" value="数据库服务器" style="text;html=1;align=center;verticalAlign=middle;whiteSpace=wrap;rounded=0;" parent="1" vertex="1">
          <mxGeometry x="624" y="330" width="60" height="30" as="geometry" />
        </mxCell>
        <mxCell id="o_4FNLrDD9hXevd7KG6G-20" value="" style="endArrow=none;html=1;rounded=0;exitX=1.123;exitY=0.84;exitDx=0;exitDy=0;exitPerimeter=0;" parent="1" source="o_4FNLrDD9hXevd7KG6G-1" target="o_4FNLrDD9hXevd7KG6G-4" edge="1">
          <mxGeometry width="50" height="50" relative="1" as="geometry">
            <mxPoint x="390" y="330" as="sourcePoint" />
            <mxPoint x="440" y="280" as="targetPoint" />
          </mxGeometry>
        </mxCell>
        <mxCell id="o_4FNLrDD9hXevd7KG6G-21" value="" style="endArrow=none;html=1;rounded=0;exitX=1;exitY=0.75;exitDx=0;exitDy=0;" parent="1" source="o_4FNLrDD9hXevd7KG6G-2" edge="1">
          <mxGeometry width="50" height="50" relative="1" as="geometry">
            <mxPoint x="390" y="330" as="sourcePoint" />
            <mxPoint x="310" y="290" as="targetPoint" />
          </mxGeometry>
        </mxCell>
        <mxCell id="o_4FNLrDD9hXevd7KG6G-22" value="" style="endArrow=none;html=1;rounded=0;" parent="1" source="o_4FNLrDD9hXevd7KG6G-3" target="o_4FNLrDD9hXevd7KG6G-4" edge="1">
          <mxGeometry width="50" height="50" relative="1" as="geometry">
            <mxPoint x="390" y="330" as="sourcePoint" />
            <mxPoint x="440" y="280" as="targetPoint" />
          </mxGeometry>
        </mxCell>
        <mxCell id="o_4FNLrDD9hXevd7KG6G-23" value="" style="endArrow=none;html=1;rounded=0;entryX=0;entryY=0.5;entryDx=0;entryDy=0;" parent="1" source="o_4FNLrDD9hXevd7KG6G-4" target="o_4FNLrDD9hXevd7KG6G-7" edge="1">
          <mxGeometry width="50" height="50" relative="1" as="geometry">
            <mxPoint x="390" y="330" as="sourcePoint" />
            <mxPoint x="440" y="280" as="targetPoint" />
          </mxGeometry>
        </mxCell>
        <mxCell id="o_4FNLrDD9hXevd7KG6G-24" value="" style="endArrow=none;html=1;rounded=0;entryX=0;entryY=0.75;entryDx=0;entryDy=0;" parent="1" target="o_4FNLrDD9hXevd7KG6G-9" edge="1">
          <mxGeometry width="50" height="50" relative="1" as="geometry">
            <mxPoint x="460" y="270" as="sourcePoint" />
            <mxPoint x="510" y="220" as="targetPoint" />
          </mxGeometry>
        </mxCell>
        <mxCell id="o_4FNLrDD9hXevd7KG6G-25" value="" style="endArrow=none;html=1;rounded=0;entryX=0;entryY=0.5;entryDx=0;entryDy=0;exitX=1;exitY=0.75;exitDx=0;exitDy=0;" parent="1" source="o_4FNLrDD9hXevd7KG6G-7" target="o_4FNLrDD9hXevd7KG6G-10" edge="1">
          <mxGeometry width="50" height="50" relative="1" as="geometry">
            <mxPoint x="470" y="280" as="sourcePoint" />
            <mxPoint x="561" y="236" as="targetPoint" />
          </mxGeometry>
        </mxCell>
        <mxCell id="o_4FNLrDD9hXevd7KG6G-26" value="" style="endArrow=none;html=1;rounded=0;exitX=0;exitY=0.5;exitDx=0;exitDy=0;entryX=1;entryY=0.75;entryDx=0;entryDy=0;" parent="1" source="o_4FNLrDD9hXevd7KG6G-8" target="o_4FNLrDD9hXevd7KG6G-9" edge="1">
          <mxGeometry width="50" height="50" relative="1" as="geometry">
            <mxPoint x="390" y="330" as="sourcePoint" />
            <mxPoint x="440" y="280" as="targetPoint" />
          </mxGeometry>
        </mxCell>
        <mxCell id="o_4FNLrDD9hXevd7KG6G-27" value="" style="endArrow=none;html=1;rounded=0;" parent="1" source="o_4FNLrDD9hXevd7KG6G-10" target="o_4FNLrDD9hXevd7KG6G-8" edge="1">
          <mxGeometry width="50" height="50" relative="1" as="geometry">
            <mxPoint x="390" y="330" as="sourcePoint" />
            <mxPoint x="440" y="280" as="targetPoint" />
          </mxGeometry>
        </mxCell>
      </root>
    </mxGraphModel>
  </diagram>
</mxfile>
